<svg width="1440" height="1024" viewBox="0 0 1440 1024" fill="none" xmlns="http://www.w3.org/2000/svg">
<path d="M597.594 436.938H620.797V469.703H597.594V514H556.953V469.703H473L471.172 444.109L556.531 309.25H597.594V436.938ZM511.672 436.938H556.953V364.656L554.281 369.297L511.672 436.938ZM780.547 429.344C780.547 457.656 774.688 479.312 762.969 494.312C751.25 509.312 734.094 516.812 711.5 516.812C689.188 516.812 672.125 509.453 660.312 494.734C648.5 480.016 642.453 458.922 642.172 431.453V393.766C642.172 365.172 648.078 343.469 659.891 328.656C671.797 313.844 688.906 306.438 711.219 306.438C733.531 306.438 750.594 313.797 762.406 328.516C774.219 343.141 780.266 364.188 780.547 391.656V429.344ZM739.906 388C739.906 371.031 737.562 358.703 732.875 351.016C728.281 343.234 721.062 339.344 711.219 339.344C701.656 339.344 694.578 343.047 689.984 350.453C685.484 357.766 683.094 369.25 682.812 384.906V434.688C682.812 451.375 685.062 463.797 689.562 471.953C694.156 480.016 701.469 484.047 711.5 484.047C721.438 484.047 728.609 480.156 733.016 472.375C737.422 464.594 739.719 452.688 739.906 436.656V388ZM928.344 436.938H951.547V469.703H928.344V514H887.703V469.703H803.75L801.922 444.109L887.281 309.25H928.344V436.938ZM842.422 436.938H887.703V364.656L885.031 369.297L842.422 436.938Z" fill="#3F3D56"/>
<path d="M513.137 618.844V642H496.684V573.75H523.918C529.137 573.75 533.746 574.719 537.746 576.656C541.777 578.562 544.887 581.297 547.074 584.859C549.293 588.391 550.402 592.406 550.402 596.906C550.402 603.562 548.012 608.891 543.23 612.891C538.48 616.859 531.949 618.844 523.637 618.844H513.137ZM513.137 606.141H523.918C527.105 606.141 529.527 605.344 531.184 603.75C532.871 602.156 533.715 599.906 533.715 597C533.715 593.812 532.855 591.266 531.137 589.359C529.418 587.453 527.074 586.484 524.105 586.453H513.137V606.141ZM586.496 642C585.934 640.969 585.434 639.453 584.996 637.453C582.09 641.109 578.027 642.938 572.809 642.938C568.027 642.938 563.965 641.5 560.621 638.625C557.277 635.719 555.605 632.078 555.605 627.703C555.605 622.203 557.637 618.047 561.699 615.234C565.762 612.422 571.668 611.016 579.418 611.016H584.293V608.344C584.293 603.688 582.277 601.359 578.246 601.359C574.496 601.359 572.621 603.203 572.621 606.891H556.824C556.824 601.984 558.902 598 563.059 594.938C567.246 591.875 572.574 590.344 579.043 590.344C585.512 590.344 590.621 591.922 594.371 595.078C598.121 598.234 600.043 602.562 600.137 608.062V630.516C600.199 635.172 600.918 638.734 602.293 641.203V642H586.496ZM576.605 631.688C578.574 631.688 580.199 631.266 581.48 630.422C582.793 629.578 583.73 628.625 584.293 627.562V619.453H579.699C574.199 619.453 571.449 621.922 571.449 626.859C571.449 628.297 571.934 629.469 572.902 630.375C573.871 631.25 575.105 631.688 576.605 631.688ZM580.543 570H597.23L584.199 584.719H571.309L580.543 570ZM607.074 616.266C607.074 611.141 607.918 606.609 609.605 602.672C611.293 598.734 613.715 595.703 616.871 593.578C620.027 591.422 623.699 590.344 627.887 590.344C633.168 590.344 637.293 592.125 640.262 595.688L640.824 591.281H655.168V640.078C655.168 644.547 654.121 648.422 652.027 651.703C649.965 655.016 646.965 657.547 643.027 659.297C639.09 661.078 634.527 661.969 629.34 661.969C625.621 661.969 622.012 661.266 618.512 659.859C615.043 658.453 612.387 656.625 610.543 654.375L617.152 645.094C620.09 648.562 623.965 650.297 628.777 650.297C635.777 650.297 639.277 646.703 639.277 639.516V637.922C636.246 641.266 632.418 642.938 627.793 642.938C621.605 642.938 616.605 640.578 612.793 635.859C608.98 631.109 607.074 624.766 607.074 616.828V616.266ZM622.918 617.25C622.918 621.406 623.699 624.703 625.262 627.141C626.824 629.547 629.012 630.75 631.824 630.75C635.23 630.75 637.715 629.609 639.277 627.328V606C637.746 603.688 635.293 602.531 631.918 602.531C629.105 602.531 626.902 603.797 625.309 606.328C623.715 608.828 622.918 612.469 622.918 617.25ZM680.809 642H664.965V591.281H680.809V642ZM664.027 578.203C664.027 575.953 664.84 574.109 666.465 572.672C668.09 571.234 670.199 570.516 672.793 570.516C675.387 570.516 677.496 571.234 679.121 572.672C680.746 574.109 681.559 575.953 681.559 578.203C681.559 580.453 680.746 582.297 679.121 583.734C677.496 585.172 675.387 585.891 672.793 585.891C670.199 585.891 668.09 585.172 666.465 583.734C664.84 582.297 664.027 580.453 664.027 578.203ZM705.09 591.281L705.605 597.234C709.105 592.641 713.934 590.344 720.09 590.344C725.371 590.344 729.309 591.922 731.902 595.078C734.527 598.234 735.887 602.984 735.98 609.328V642H720.137V609.984C720.137 607.422 719.621 605.547 718.59 604.359C717.559 603.141 715.684 602.531 712.965 602.531C709.871 602.531 707.574 603.75 706.074 606.188V642H690.277V591.281H705.09ZM773.34 642C772.777 640.969 772.277 639.453 771.84 637.453C768.934 641.109 764.871 642.938 759.652 642.938C754.871 642.938 750.809 641.5 747.465 638.625C744.121 635.719 742.449 632.078 742.449 627.703C742.449 622.203 744.48 618.047 748.543 615.234C752.605 612.422 758.512 611.016 766.262 611.016H771.137V608.344C771.137 603.688 769.121 601.359 765.09 601.359C761.34 601.359 759.465 603.203 759.465 606.891H743.668C743.668 601.984 745.746 598 749.902 594.938C754.09 591.875 759.418 590.344 765.887 590.344C772.355 590.344 777.465 591.922 781.215 595.078C784.965 598.234 786.887 602.562 786.98 608.062V630.516C787.043 635.172 787.762 638.734 789.137 641.203V642H773.34ZM763.449 631.688C765.418 631.688 767.043 631.266 768.324 630.422C769.637 629.578 770.574 628.625 771.137 627.562V619.453H766.543C761.043 619.453 758.293 621.922 758.293 626.859C758.293 628.297 758.777 629.469 759.746 630.375C760.715 631.25 761.949 631.688 763.449 631.688ZM834.184 591.281L834.699 597.234C838.199 592.641 843.027 590.344 849.184 590.344C854.465 590.344 858.402 591.922 860.996 595.078C863.621 598.234 864.98 602.984 865.074 609.328V642H849.23V609.984C849.23 607.422 848.715 605.547 847.684 604.359C846.652 603.141 844.777 602.531 842.059 602.531C838.965 602.531 836.668 603.75 835.168 606.188V642H819.371V591.281H834.184ZM902.434 642C901.871 640.969 901.371 639.453 900.934 637.453C898.027 641.109 893.965 642.938 888.746 642.938C883.965 642.938 879.902 641.5 876.559 638.625C873.215 635.719 871.543 632.078 871.543 627.703C871.543 622.203 873.574 618.047 877.637 615.234C881.699 612.422 887.605 611.016 895.355 611.016H900.23V608.344C900.23 603.688 898.215 601.359 894.184 601.359C890.434 601.359 888.559 603.203 888.559 606.891H872.762C872.762 601.984 874.84 598 878.996 594.938C883.184 591.875 888.512 590.344 894.98 590.344C901.449 590.344 906.559 591.922 910.309 595.078C914.059 598.234 915.98 602.562 916.074 608.062V630.516C916.137 635.172 916.855 638.734 918.23 641.203V642H902.434ZM892.543 631.688C894.512 631.688 896.137 631.266 897.418 630.422C898.73 629.578 899.668 628.625 900.23 627.562V619.453H895.637C890.137 619.453 887.387 621.922 887.387 626.859C887.387 628.297 887.871 629.469 888.84 630.375C889.809 631.25 891.043 631.688 892.543 631.688ZM912.559 570.375C912.559 573.938 911.512 576.969 909.418 579.469C907.355 581.938 904.793 583.172 901.73 583.172C899.668 583.172 897.371 582.516 894.84 581.203C892.309 579.891 890.262 579.234 888.699 579.234C887.699 579.234 886.84 579.578 886.121 580.266C885.434 580.953 885.09 582.016 885.09 583.453L876.324 582.984C876.324 579.516 877.355 576.516 879.418 573.984C881.512 571.453 884.074 570.188 887.105 570.188C888.668 570.188 890.715 570.766 893.246 571.922C895.777 573.047 897.371 573.688 898.027 573.844C898.715 574 899.434 574.078 900.184 574.078C901.184 574.078 902.043 573.734 902.762 573.047C903.48 572.359 903.84 571.297 903.84 569.859L912.559 570.375ZM922.871 616.172C922.871 611.109 923.855 606.609 925.824 602.672C927.793 598.703 930.621 595.656 934.309 593.531C937.996 591.406 942.324 590.344 947.293 590.344C954.887 590.344 960.871 592.703 965.246 597.422C969.621 602.109 971.809 608.5 971.809 616.594V617.156C971.809 625.062 969.605 631.344 965.199 636C960.824 640.625 954.887 642.938 947.387 642.938C940.168 642.938 934.371 640.781 929.996 636.469C925.621 632.125 923.262 626.25 922.918 618.844L922.871 616.172ZM938.668 617.156C938.668 621.844 939.402 625.281 940.871 627.469C942.34 629.656 944.512 630.75 947.387 630.75C953.012 630.75 955.887 626.422 956.012 617.766V616.172C956.012 607.078 953.105 602.531 947.293 602.531C942.012 602.531 939.152 606.453 938.715 614.297L938.668 617.156ZM517.684 755.938C509.902 755.938 503.605 753.625 498.793 749C493.98 744.344 491.574 738.297 491.574 730.859V729.547C491.574 724.359 492.527 719.781 494.434 715.812C496.371 711.844 499.184 708.781 502.871 706.625C506.559 704.438 510.934 703.344 515.996 703.344C523.121 703.344 528.746 705.562 532.871 710C536.996 714.406 539.059 720.562 539.059 728.469V734.609H507.652C508.215 737.453 509.449 739.688 511.355 741.312C513.262 742.938 515.73 743.75 518.762 743.75C523.762 743.75 527.668 742 530.48 738.5L537.699 747.031C535.73 749.75 532.934 751.922 529.309 753.547C525.715 755.141 521.84 755.938 517.684 755.938ZM515.902 715.531C511.277 715.531 508.527 718.594 507.652 724.719H523.59V723.5C523.652 720.969 523.012 719.016 521.668 717.641C520.324 716.234 518.402 715.531 515.902 715.531ZM559.965 704.281L560.48 710.234C563.98 705.641 568.809 703.344 574.965 703.344C580.246 703.344 584.184 704.922 586.777 708.078C589.402 711.234 590.762 715.984 590.855 722.328V755H575.012V722.984C575.012 720.422 574.496 718.547 573.465 717.359C572.434 716.141 570.559 715.531 567.84 715.531C564.746 715.531 562.449 716.75 560.949 719.188V755H545.152V704.281H559.965ZM621.09 743.75C623.309 743.75 625.027 743.156 626.246 741.969C627.465 740.75 628.059 739.062 628.027 736.906H642.84C642.84 742.469 640.84 747.031 636.84 750.594C632.871 754.156 627.746 755.938 621.465 755.938C614.09 755.938 608.277 753.625 604.027 749C599.777 744.375 597.652 737.969 597.652 729.781V729.125C597.652 724 598.59 719.484 600.465 715.578C602.371 711.641 605.105 708.625 608.668 706.531C612.23 704.406 616.449 703.344 621.324 703.344C627.918 703.344 633.152 705.172 637.027 708.828C640.902 712.484 642.84 717.438 642.84 723.688H628.027C628.027 721.062 627.387 719.047 626.105 717.641C624.824 716.234 623.105 715.531 620.949 715.531C616.855 715.531 614.465 718.141 613.777 723.359C613.559 725.016 613.449 727.297 613.449 730.203C613.449 735.297 614.059 738.828 615.277 740.797C616.496 742.766 618.434 743.75 621.09 743.75ZM647.527 729.172C647.527 724.109 648.512 719.609 650.48 715.672C652.449 711.703 655.277 708.656 658.965 706.531C662.652 704.406 666.98 703.344 671.949 703.344C679.543 703.344 685.527 705.703 689.902 710.422C694.277 715.109 696.465 721.5 696.465 729.594V730.156C696.465 738.062 694.262 744.344 689.855 749C685.48 753.625 679.543 755.938 672.043 755.938C664.824 755.938 659.027 753.781 654.652 749.469C650.277 745.125 647.918 739.25 647.574 731.844L647.527 729.172ZM663.324 730.156C663.324 734.844 664.059 738.281 665.527 740.469C666.996 742.656 669.168 743.75 672.043 743.75C677.668 743.75 680.543 739.422 680.668 730.766V729.172C680.668 720.078 677.762 715.531 671.949 715.531C666.668 715.531 663.809 719.453 663.371 727.297L663.324 730.156ZM717.934 704.281L718.449 710.234C721.949 705.641 726.777 703.344 732.934 703.344C738.215 703.344 742.152 704.922 744.746 708.078C747.371 711.234 748.73 715.984 748.824 722.328V755H732.98V722.984C732.98 720.422 732.465 718.547 731.434 717.359C730.402 716.141 728.527 715.531 725.809 715.531C722.715 715.531 720.418 716.75 718.918 719.188V755H703.121V704.281H717.934ZM776.012 691.672V704.281H784.355V715.25H776.012V738.453C776.012 740.359 776.355 741.688 777.043 742.438C777.73 743.188 779.09 743.562 781.121 743.562C782.684 743.562 783.996 743.469 785.059 743.281V754.578C782.215 755.484 779.246 755.938 776.152 755.938C770.715 755.938 766.699 754.656 764.105 752.094C761.512 749.531 760.215 745.641 760.215 740.422V715.25H753.746V704.281H760.215V691.672H776.012ZM821.293 718.578L816.09 718.203C811.121 718.203 807.934 719.766 806.527 722.891V755H790.73V704.281H805.543L806.059 710.797C808.715 705.828 812.418 703.344 817.168 703.344C818.855 703.344 820.324 703.531 821.574 703.906L821.293 718.578ZM854.152 755C853.59 753.969 853.09 752.453 852.652 750.453C849.746 754.109 845.684 755.938 840.465 755.938C835.684 755.938 831.621 754.5 828.277 751.625C824.934 748.719 823.262 745.078 823.262 740.703C823.262 735.203 825.293 731.047 829.355 728.234C833.418 725.422 839.324 724.016 847.074 724.016H851.949V721.344C851.949 716.688 849.934 714.359 845.902 714.359C842.152 714.359 840.277 716.203 840.277 719.891H824.48C824.48 714.984 826.559 711 830.715 707.938C834.902 704.875 840.23 703.344 846.699 703.344C853.168 703.344 858.277 704.922 862.027 708.078C865.777 711.234 867.699 715.562 867.793 721.062V743.516C867.855 748.172 868.574 751.734 869.949 754.203V755H854.152ZM844.262 744.688C846.23 744.688 847.855 744.266 849.137 743.422C850.449 742.578 851.387 741.625 851.949 740.562V732.453H847.355C841.855 732.453 839.105 734.922 839.105 739.859C839.105 741.297 839.59 742.469 840.559 743.375C841.527 744.25 842.762 744.688 844.262 744.688ZM874.59 729.266C874.59 721.234 876.324 714.906 879.793 710.281C883.262 705.656 888.105 703.344 894.324 703.344C898.855 703.344 902.668 705.125 905.762 708.688V683H921.605V755H907.402L906.605 749.562C903.355 753.812 899.23 755.938 894.23 755.938C888.199 755.938 883.418 753.625 879.887 749C876.355 744.375 874.59 737.797 874.59 729.266ZM890.387 730.25C890.387 739.25 893.012 743.75 898.262 743.75C901.762 743.75 904.262 742.281 905.762 739.344V720.031C904.324 717.031 901.855 715.531 898.355 715.531C893.48 715.531 890.84 719.469 890.434 727.344L890.387 730.25ZM959.152 755C958.59 753.969 958.09 752.453 957.652 750.453C954.746 754.109 950.684 755.938 945.465 755.938C940.684 755.938 936.621 754.5 933.277 751.625C929.934 748.719 928.262 745.078 928.262 740.703C928.262 735.203 930.293 731.047 934.355 728.234C938.418 725.422 944.324 724.016 952.074 724.016H956.949V721.344C956.949 716.688 954.934 714.359 950.902 714.359C947.152 714.359 945.277 716.203 945.277 719.891H929.48C929.48 714.984 931.559 711 935.715 707.938C939.902 704.875 945.23 703.344 951.699 703.344C958.168 703.344 963.277 704.922 967.027 708.078C970.777 711.234 972.699 715.562 972.793 721.062V743.516C972.855 748.172 973.574 751.734 974.949 754.203V755H959.152ZM949.262 744.688C951.23 744.688 952.855 744.266 954.137 743.422C955.449 742.578 956.387 741.625 956.949 740.562V732.453H952.355C946.855 732.453 944.105 734.922 944.105 739.859C944.105 741.297 944.59 742.469 945.559 743.375C946.527 744.25 947.762 744.688 949.262 744.688Z" fill="#3F3D56"/>
<path d="M614.594 433.938H637.797V466.703H614.594V511H573.953V466.703H490L488.172 441.109L573.531 306.25H614.594V433.938ZM528.672 433.938H573.953V361.656L571.281 366.297L528.672 433.938ZM797.547 426.344C797.547 454.656 791.688 476.312 779.969 491.312C768.25 506.312 751.094 513.812 728.5 513.812C706.188 513.812 689.125 506.453 677.312 491.734C665.5 477.016 659.453 455.922 659.172 428.453V390.766C659.172 362.172 665.078 340.469 676.891 325.656C688.797 310.844 705.906 303.438 728.219 303.438C750.531 303.438 767.594 310.797 779.406 325.516C791.219 340.141 797.266 361.188 797.547 388.656V426.344ZM756.906 385C756.906 368.031 754.562 355.703 749.875 348.016C745.281 340.234 738.062 336.344 728.219 336.344C718.656 336.344 711.578 340.047 706.984 347.453C702.484 354.766 700.094 366.25 699.812 381.906V431.688C699.812 448.375 702.062 460.797 706.562 468.953C711.156 477.016 718.469 481.047 728.5 481.047C738.438 481.047 745.609 477.156 750.016 469.375C754.422 461.594 756.719 449.688 756.906 433.656V385ZM945.344 433.938H968.547V466.703H945.344V511H904.703V466.703H820.75L818.922 441.109L904.281 306.25H945.344V433.938ZM859.422 433.938H904.703V361.656L902.031 366.297L859.422 433.938Z" fill="white"/>
<path d="M523.137 616.844V640H506.684V571.75H533.918C539.137 571.75 543.746 572.719 547.746 574.656C551.777 576.562 554.887 579.297 557.074 582.859C559.293 586.391 560.402 590.406 560.402 594.906C560.402 601.562 558.012 606.891 553.23 610.891C548.48 614.859 541.949 616.844 533.637 616.844H523.137ZM523.137 604.141H533.918C537.105 604.141 539.527 603.344 541.184 601.75C542.871 600.156 543.715 597.906 543.715 595C543.715 591.812 542.855 589.266 541.137 587.359C539.418 585.453 537.074 584.484 534.105 584.453H523.137V604.141ZM596.496 640C595.934 638.969 595.434 637.453 594.996 635.453C592.09 639.109 588.027 640.938 582.809 640.938C578.027 640.938 573.965 639.5 570.621 636.625C567.277 633.719 565.605 630.078 565.605 625.703C565.605 620.203 567.637 616.047 571.699 613.234C575.762 610.422 581.668 609.016 589.418 609.016H594.293V606.344C594.293 601.688 592.277 599.359 588.246 599.359C584.496 599.359 582.621 601.203 582.621 604.891H566.824C566.824 599.984 568.902 596 573.059 592.938C577.246 589.875 582.574 588.344 589.043 588.344C595.512 588.344 600.621 589.922 604.371 593.078C608.121 596.234 610.043 600.562 610.137 606.062V628.516C610.199 633.172 610.918 636.734 612.293 639.203V640H596.496ZM586.605 629.688C588.574 629.688 590.199 629.266 591.48 628.422C592.793 627.578 593.73 626.625 594.293 625.562V617.453H589.699C584.199 617.453 581.449 619.922 581.449 624.859C581.449 626.297 581.934 627.469 582.902 628.375C583.871 629.25 585.105 629.688 586.605 629.688ZM590.543 568H607.23L594.199 582.719H581.309L590.543 568ZM617.074 614.266C617.074 609.141 617.918 604.609 619.605 600.672C621.293 596.734 623.715 593.703 626.871 591.578C630.027 589.422 633.699 588.344 637.887 588.344C643.168 588.344 647.293 590.125 650.262 593.688L650.824 589.281H665.168V638.078C665.168 642.547 664.121 646.422 662.027 649.703C659.965 653.016 656.965 655.547 653.027 657.297C649.09 659.078 644.527 659.969 639.34 659.969C635.621 659.969 632.012 659.266 628.512 657.859C625.043 656.453 622.387 654.625 620.543 652.375L627.152 643.094C630.09 646.562 633.965 648.297 638.777 648.297C645.777 648.297 649.277 644.703 649.277 637.516V635.922C646.246 639.266 642.418 640.938 637.793 640.938C631.605 640.938 626.605 638.578 622.793 633.859C618.98 629.109 617.074 622.766 617.074 614.828V614.266ZM632.918 615.25C632.918 619.406 633.699 622.703 635.262 625.141C636.824 627.547 639.012 628.75 641.824 628.75C645.23 628.75 647.715 627.609 649.277 625.328V604C647.746 601.688 645.293 600.531 641.918 600.531C639.105 600.531 636.902 601.797 635.309 604.328C633.715 606.828 632.918 610.469 632.918 615.25ZM690.809 640H674.965V589.281H690.809V640ZM674.027 576.203C674.027 573.953 674.84 572.109 676.465 570.672C678.09 569.234 680.199 568.516 682.793 568.516C685.387 568.516 687.496 569.234 689.121 570.672C690.746 572.109 691.559 573.953 691.559 576.203C691.559 578.453 690.746 580.297 689.121 581.734C687.496 583.172 685.387 583.891 682.793 583.891C680.199 583.891 678.09 583.172 676.465 581.734C674.84 580.297 674.027 578.453 674.027 576.203ZM715.09 589.281L715.605 595.234C719.105 590.641 723.934 588.344 730.09 588.344C735.371 588.344 739.309 589.922 741.902 593.078C744.527 596.234 745.887 600.984 745.98 607.328V640H730.137V607.984C730.137 605.422 729.621 603.547 728.59 602.359C727.559 601.141 725.684 600.531 722.965 600.531C719.871 600.531 717.574 601.75 716.074 604.188V640H700.277V589.281H715.09ZM783.34 640C782.777 638.969 782.277 637.453 781.84 635.453C778.934 639.109 774.871 640.938 769.652 640.938C764.871 640.938 760.809 639.5 757.465 636.625C754.121 633.719 752.449 630.078 752.449 625.703C752.449 620.203 754.48 616.047 758.543 613.234C762.605 610.422 768.512 609.016 776.262 609.016H781.137V606.344C781.137 601.688 779.121 599.359 775.09 599.359C771.34 599.359 769.465 601.203 769.465 604.891H753.668C753.668 599.984 755.746 596 759.902 592.938C764.09 589.875 769.418 588.344 775.887 588.344C782.355 588.344 787.465 589.922 791.215 593.078C794.965 596.234 796.887 600.562 796.98 606.062V628.516C797.043 633.172 797.762 636.734 799.137 639.203V640H783.34ZM773.449 629.688C775.418 629.688 777.043 629.266 778.324 628.422C779.637 627.578 780.574 626.625 781.137 625.562V617.453H776.543C771.043 617.453 768.293 619.922 768.293 624.859C768.293 626.297 768.777 627.469 769.746 628.375C770.715 629.25 771.949 629.688 773.449 629.688ZM844.184 589.281L844.699 595.234C848.199 590.641 853.027 588.344 859.184 588.344C864.465 588.344 868.402 589.922 870.996 593.078C873.621 596.234 874.98 600.984 875.074 607.328V640H859.23V607.984C859.23 605.422 858.715 603.547 857.684 602.359C856.652 601.141 854.777 600.531 852.059 600.531C848.965 600.531 846.668 601.75 845.168 604.188V640H829.371V589.281H844.184ZM912.434 640C911.871 638.969 911.371 637.453 910.934 635.453C908.027 639.109 903.965 640.938 898.746 640.938C893.965 640.938 889.902 639.5 886.559 636.625C883.215 633.719 881.543 630.078 881.543 625.703C881.543 620.203 883.574 616.047 887.637 613.234C891.699 610.422 897.605 609.016 905.355 609.016H910.23V606.344C910.23 601.688 908.215 599.359 904.184 599.359C900.434 599.359 898.559 601.203 898.559 604.891H882.762C882.762 599.984 884.84 596 888.996 592.938C893.184 589.875 898.512 588.344 904.98 588.344C911.449 588.344 916.559 589.922 920.309 593.078C924.059 596.234 925.98 600.562 926.074 606.062V628.516C926.137 633.172 926.855 636.734 928.23 639.203V640H912.434ZM902.543 629.688C904.512 629.688 906.137 629.266 907.418 628.422C908.73 627.578 909.668 626.625 910.23 625.562V617.453H905.637C900.137 617.453 897.387 619.922 897.387 624.859C897.387 626.297 897.871 627.469 898.84 628.375C899.809 629.25 901.043 629.688 902.543 629.688ZM922.559 568.375C922.559 571.938 921.512 574.969 919.418 577.469C917.355 579.938 914.793 581.172 911.73 581.172C909.668 581.172 907.371 580.516 904.84 579.203C902.309 577.891 900.262 577.234 898.699 577.234C897.699 577.234 896.84 577.578 896.121 578.266C895.434 578.953 895.09 580.016 895.09 581.453L886.324 580.984C886.324 577.516 887.355 574.516 889.418 571.984C891.512 569.453 894.074 568.188 897.105 568.188C898.668 568.188 900.715 568.766 903.246 569.922C905.777 571.047 907.371 571.688 908.027 571.844C908.715 572 909.434 572.078 910.184 572.078C911.184 572.078 912.043 571.734 912.762 571.047C913.48 570.359 913.84 569.297 913.84 567.859L922.559 568.375ZM932.871 614.172C932.871 609.109 933.855 604.609 935.824 600.672C937.793 596.703 940.621 593.656 944.309 591.531C947.996 589.406 952.324 588.344 957.293 588.344C964.887 588.344 970.871 590.703 975.246 595.422C979.621 600.109 981.809 606.5 981.809 614.594V615.156C981.809 623.062 979.605 629.344 975.199 634C970.824 638.625 964.887 640.938 957.387 640.938C950.168 640.938 944.371 638.781 939.996 634.469C935.621 630.125 933.262 624.25 932.918 616.844L932.871 614.172ZM948.668 615.156C948.668 619.844 949.402 623.281 950.871 625.469C952.34 627.656 954.512 628.75 957.387 628.75C963.012 628.75 965.887 624.422 966.012 615.766V614.172C966.012 605.078 963.105 600.531 957.293 600.531C952.012 600.531 949.152 604.453 948.715 612.297L948.668 615.156ZM527.684 753.938C519.902 753.938 513.605 751.625 508.793 747C503.98 742.344 501.574 736.297 501.574 728.859V727.547C501.574 722.359 502.527 717.781 504.434 713.812C506.371 709.844 509.184 706.781 512.871 704.625C516.559 702.438 520.934 701.344 525.996 701.344C533.121 701.344 538.746 703.562 542.871 708C546.996 712.406 549.059 718.562 549.059 726.469V732.609H517.652C518.215 735.453 519.449 737.688 521.355 739.312C523.262 740.938 525.73 741.75 528.762 741.75C533.762 741.75 537.668 740 540.48 736.5L547.699 745.031C545.73 747.75 542.934 749.922 539.309 751.547C535.715 753.141 531.84 753.938 527.684 753.938ZM525.902 713.531C521.277 713.531 518.527 716.594 517.652 722.719H533.59V721.5C533.652 718.969 533.012 717.016 531.668 715.641C530.324 714.234 528.402 713.531 525.902 713.531ZM569.965 702.281L570.48 708.234C573.98 703.641 578.809 701.344 584.965 701.344C590.246 701.344 594.184 702.922 596.777 706.078C599.402 709.234 600.762 713.984 600.855 720.328V753H585.012V720.984C585.012 718.422 584.496 716.547 583.465 715.359C582.434 714.141 580.559 713.531 577.84 713.531C574.746 713.531 572.449 714.75 570.949 717.188V753H555.152V702.281H569.965ZM631.09 741.75C633.309 741.75 635.027 741.156 636.246 739.969C637.465 738.75 638.059 737.062 638.027 734.906H652.84C652.84 740.469 650.84 745.031 646.84 748.594C642.871 752.156 637.746 753.938 631.465 753.938C624.09 753.938 618.277 751.625 614.027 747C609.777 742.375 607.652 735.969 607.652 727.781V727.125C607.652 722 608.59 717.484 610.465 713.578C612.371 709.641 615.105 706.625 618.668 704.531C622.23 702.406 626.449 701.344 631.324 701.344C637.918 701.344 643.152 703.172 647.027 706.828C650.902 710.484 652.84 715.438 652.84 721.688H638.027C638.027 719.062 637.387 717.047 636.105 715.641C634.824 714.234 633.105 713.531 630.949 713.531C626.855 713.531 624.465 716.141 623.777 721.359C623.559 723.016 623.449 725.297 623.449 728.203C623.449 733.297 624.059 736.828 625.277 738.797C626.496 740.766 628.434 741.75 631.09 741.75ZM657.527 727.172C657.527 722.109 658.512 717.609 660.48 713.672C662.449 709.703 665.277 706.656 668.965 704.531C672.652 702.406 676.98 701.344 681.949 701.344C689.543 701.344 695.527 703.703 699.902 708.422C704.277 713.109 706.465 719.5 706.465 727.594V728.156C706.465 736.062 704.262 742.344 699.855 747C695.48 751.625 689.543 753.938 682.043 753.938C674.824 753.938 669.027 751.781 664.652 747.469C660.277 743.125 657.918 737.25 657.574 729.844L657.527 727.172ZM673.324 728.156C673.324 732.844 674.059 736.281 675.527 738.469C676.996 740.656 679.168 741.75 682.043 741.75C687.668 741.75 690.543 737.422 690.668 728.766V727.172C690.668 718.078 687.762 713.531 681.949 713.531C676.668 713.531 673.809 717.453 673.371 725.297L673.324 728.156ZM727.934 702.281L728.449 708.234C731.949 703.641 736.777 701.344 742.934 701.344C748.215 701.344 752.152 702.922 754.746 706.078C757.371 709.234 758.73 713.984 758.824 720.328V753H742.98V720.984C742.98 718.422 742.465 716.547 741.434 715.359C740.402 714.141 738.527 713.531 735.809 713.531C732.715 713.531 730.418 714.75 728.918 717.188V753H713.121V702.281H727.934ZM786.012 689.672V702.281H794.355V713.25H786.012V736.453C786.012 738.359 786.355 739.688 787.043 740.438C787.73 741.188 789.09 741.562 791.121 741.562C792.684 741.562 793.996 741.469 795.059 741.281V752.578C792.215 753.484 789.246 753.938 786.152 753.938C780.715 753.938 776.699 752.656 774.105 750.094C771.512 747.531 770.215 743.641 770.215 738.422V713.25H763.746V702.281H770.215V689.672H786.012ZM831.293 716.578L826.09 716.203C821.121 716.203 817.934 717.766 816.527 720.891V753H800.73V702.281H815.543L816.059 708.797C818.715 703.828 822.418 701.344 827.168 701.344C828.855 701.344 830.324 701.531 831.574 701.906L831.293 716.578ZM864.152 753C863.59 751.969 863.09 750.453 862.652 748.453C859.746 752.109 855.684 753.938 850.465 753.938C845.684 753.938 841.621 752.5 838.277 749.625C834.934 746.719 833.262 743.078 833.262 738.703C833.262 733.203 835.293 729.047 839.355 726.234C843.418 723.422 849.324 722.016 857.074 722.016H861.949V719.344C861.949 714.688 859.934 712.359 855.902 712.359C852.152 712.359 850.277 714.203 850.277 717.891H834.48C834.48 712.984 836.559 709 840.715 705.938C844.902 702.875 850.23 701.344 856.699 701.344C863.168 701.344 868.277 702.922 872.027 706.078C875.777 709.234 877.699 713.562 877.793 719.062V741.516C877.855 746.172 878.574 749.734 879.949 752.203V753H864.152ZM854.262 742.688C856.23 742.688 857.855 742.266 859.137 741.422C860.449 740.578 861.387 739.625 861.949 738.562V730.453H857.355C851.855 730.453 849.105 732.922 849.105 737.859C849.105 739.297 849.59 740.469 850.559 741.375C851.527 742.25 852.762 742.688 854.262 742.688ZM884.59 727.266C884.59 719.234 886.324 712.906 889.793 708.281C893.262 703.656 898.105 701.344 904.324 701.344C908.855 701.344 912.668 703.125 915.762 706.688V681H931.605V753H917.402L916.605 747.562C913.355 751.812 909.23 753.938 904.23 753.938C898.199 753.938 893.418 751.625 889.887 747C886.355 742.375 884.59 735.797 884.59 727.266ZM900.387 728.25C900.387 737.25 903.012 741.75 908.262 741.75C911.762 741.75 914.262 740.281 915.762 737.344V718.031C914.324 715.031 911.855 713.531 908.355 713.531C903.48 713.531 900.84 717.469 900.434 725.344L900.387 728.25ZM969.152 753C968.59 751.969 968.09 750.453 967.652 748.453C964.746 752.109 960.684 753.938 955.465 753.938C950.684 753.938 946.621 752.5 943.277 749.625C939.934 746.719 938.262 743.078 938.262 738.703C938.262 733.203 940.293 729.047 944.355 726.234C948.418 723.422 954.324 722.016 962.074 722.016H966.949V719.344C966.949 714.688 964.934 712.359 960.902 712.359C957.152 712.359 955.277 714.203 955.277 717.891H939.48C939.48 712.984 941.559 709 945.715 705.938C949.902 702.875 955.23 701.344 961.699 701.344C968.168 701.344 973.277 702.922 977.027 706.078C980.777 709.234 982.699 713.562 982.793 719.062V741.516C982.855 746.172 983.574 749.734 984.949 752.203V753H969.152ZM959.262 742.688C961.23 742.688 962.855 742.266 964.137 741.422C965.449 740.578 966.387 739.625 966.949 738.562V730.453H962.355C956.855 730.453 954.105 732.922 954.105 737.859C954.105 739.297 954.59 740.469 955.559 741.375C956.527 742.25 957.762 742.688 959.262 742.688Z" fill="white"/>
</svg>
